<svg width="59" height="59" viewBox="0 0 59 59" fill="none" xmlns="http://www.w3.org/2000/svg">
<path fill-rule="evenodd" clip-rule="evenodd" d="M29.5001 0.5C45.5164 0.5 58.5001 13.4837 58.5001 29.5C58.5001 45.5163 45.5164 58.5 29.5001 58.5C13.4838 58.5 0.500061 45.5163 0.500061 29.5C0.500061 13.4837 13.4838 0.5 29.5001 0.5ZM35.9364 23.9485L39.876 30.7724L39.936 30.8764L41.7824 29.8105L34.8411 17.7877L32.836 29.4876C32.7813 29.8011 32.7546 30.1187 32.756 30.4375C32.7573 30.751 32.7853 31.0699 32.8427 31.386C32.8987 31.6982 32.9801 32.0064 33.0895 32.3065C33.1962 32.6 33.3296 32.8869 33.4897 33.1644C33.8619 33.8087 34.3449 34.3504 34.9025 34.7773C35.4802 35.2215 36.1379 35.5417 36.8303 35.7271C37.5226 35.9126 38.2524 35.9633 38.9755 35.8685C39.6718 35.7765 40.3616 35.5497 41.0059 35.1775L42.0705 34.5625L43.9676 37.8483H36.9783V39.9749C37.5478 39.9749 38.5617 39.9752 39.7192 39.9756C42.6073 39.9765 46.3895 39.9777 46.3943 39.9749C46.529 39.9749 46.6518 39.9402 46.7558 39.8801C46.8679 39.8148 46.9586 39.7227 47.0213 39.6133C47.084 39.5039 47.1187 39.3785 47.1187 39.2504C47.1187 39.129 47.088 39.0063 47.0213 38.8902L42.8443 31.6555L39.9467 33.3285L39.94 33.3325C39.1329 33.7981 38.215 33.8928 37.3812 33.67C36.9557 33.5553 36.5528 33.3591 36.1992 33.0883C35.859 32.8268 35.5615 32.4947 35.3334 32.0984C35.232 31.9223 35.148 31.7436 35.0813 31.5635C35.0132 31.3767 34.9625 31.1913 34.9292 31.0058C34.8945 30.815 34.8772 30.6216 34.8772 30.4268C34.8758 30.2307 34.8932 30.0359 34.9252 29.8452L35.9364 23.9485ZM25.4772 19.7755L25.4185 19.8782L21.4803 26.7007L27.0928 24.6276C27.2742 24.5609 27.4503 24.4768 27.6211 24.3781C27.7892 24.2794 27.9479 24.1686 28.096 24.0432C28.2401 23.9218 28.3762 23.7844 28.5029 23.6323C28.6256 23.4856 28.739 23.3228 28.8404 23.1467C29.0699 22.7505 29.2086 22.3276 29.2647 21.902C29.3234 21.4605 29.2914 21.0135 29.178 20.588C28.9538 19.7542 28.4122 19.0057 27.6064 18.5402L27.5997 18.5362L24.7021 16.8632L28.8791 9.62848C28.9472 9.51375 29.0379 9.42437 29.1433 9.36433C29.254 9.29896 29.3807 9.26695 29.5061 9.26695C29.6315 9.26561 29.7569 9.29897 29.869 9.363C29.9731 9.42303 30.0638 9.51108 30.1318 9.62848C30.1355 9.63121 31.8594 12.6189 33.2718 15.0667C33.9314 16.2098 34.523 17.2351 34.8398 17.7837L32.9988 18.847L29.5035 12.7943L27.6064 16.0801L28.671 16.6951C29.3154 17.0673 29.857 17.5503 30.2839 18.1079C30.7282 18.6869 31.0483 19.3446 31.2338 20.037C31.4192 20.7294 31.4699 21.4591 31.3752 22.1822C31.2831 22.8786 31.0563 23.5683 30.6841 24.2127C30.524 24.4888 30.3426 24.7476 30.1412 24.9878C29.9371 25.2319 29.7103 25.4574 29.4675 25.6628C29.2206 25.8709 28.9605 26.0537 28.6883 26.2125C28.4135 26.3725 28.124 26.5086 27.8252 26.6194L16.6896 30.7323L23.6308 18.7096L25.4772 19.7755ZM23.0945 37.8457H23.2133V37.847H31.0897L26.4884 34.0235C26.339 33.8994 26.1789 33.7874 26.0082 33.69C25.8401 33.5939 25.664 33.5112 25.4812 33.4459C25.3038 33.3818 25.117 33.3325 24.9222 33.2991C24.7328 33.2671 24.5367 33.2497 24.3326 33.2497C23.875 33.2497 23.4387 33.3405 23.0425 33.5046C22.6316 33.6753 22.2594 33.9261 21.9486 34.237C21.3389 34.8466 20.9613 35.6898 20.9613 36.621V36.629V39.9749H12.6073C12.4726 39.9749 12.3512 39.9388 12.2458 39.8788C12.1337 39.8148 12.043 39.7227 11.9803 39.6133C11.9176 39.5053 11.8829 39.3799 11.8829 39.2504C11.8829 39.1304 11.9136 39.0076 11.9816 38.8902C11.9816 38.8843 14.0124 35.3693 15.4727 32.8416C15.9869 31.9515 16.4304 31.1839 16.6896 30.735L18.5306 31.7983L15.0353 37.851H18.8295V36.621C18.8295 35.8766 18.9789 35.1655 19.247 34.5171C19.5272 33.8421 19.9354 33.2364 20.4424 32.7295C20.9493 32.2225 21.5563 31.8129 22.2301 31.5341C22.8784 31.2646 23.5895 31.1165 24.3339 31.1165C24.6541 31.1165 24.9689 31.1446 25.2771 31.1993C25.5919 31.2553 25.9001 31.338 26.199 31.4461C26.5018 31.5555 26.7899 31.6902 27.0634 31.8463C27.3396 32.005 27.6011 32.1865 27.8465 32.3906L36.977 39.9775H23.0945V37.8457Z" fill="black"/>
</svg>
